<?xml version="1.0" standalone="no"?>
<!DOCTYPE svg PUBLIC "-//W3C//DTD SVG 20010904//EN"
 "http://www.w3.org/TR/2001/REC-SVG-20010904/DTD/svg10.dtd">
<svg version="1.0" xmlns="http://www.w3.org/2000/svg"
 width="438.000000pt" height="438.000000pt" viewBox="0 0 438.000000 438.000000"
 preserveAspectRatio="xMidYMid meet">
<metadata>
Created by potrace 1.14, written by Peter Selinger 2001-2017
</metadata>
<g transform="translate(0.000000,438.000000) scale(0.100000,-0.100000)"
fill="#000000" stroke="none">
<path d="M1828 4285 c-2 -1 -28 -5 -58 -8 -67 -6 -164 -31 -216 -55 -103 -47
-217 -142 -273 -227 -14 -22 -29 -42 -32 -45 -17 -14 -87 -189 -95 -238 -3
-21 -8 -40 -10 -43 -5 -8 -17 -152 -17 -199 0 -41 11 -163 18 -202 3 -16 7
-40 10 -55 3 -16 8 -44 11 -63 3 -19 8 -38 11 -42 2 -5 6 -16 8 -25 2 -10 11
-56 20 -102 19 -93 16 -166 -10 -205 -23 -35 -81 -59 -150 -63 -193 -11 -233
-16 -329 -44 -255 -75 -439 -246 -521 -484 -24 -69 -29 -234 -9 -301 32 -109
113 -215 222 -293 132 -93 376 -147 544 -119 29 4 70 10 90 13 20 3 48 9 62
15 15 5 26 8 26 6 0 -5 99 28 135 43 199 88 327 182 537 397 108 110 231 214
254 214 2 0 28 16 58 35 30 19 57 35 59 35 9 0 254 165 296 199 73 59 127 116
184 193 49 66 103 159 98 166 -2 2 4 14 13 27 18 28 65 181 73 240 6 43 8 304
3 345 -3 23 -27 133 -34 155 -2 6 -7 25 -11 43 -4 18 -12 35 -16 38 -5 3 -9
14 -9 25 0 10 -5 19 -12 19 -6 0 -8 3 -5 7 4 3 2 12 -4 20 -6 7 -8 13 -5 13 4
0 -2 13 -13 29 -12 16 -21 32 -21 36 0 4 -21 37 -47 74 -91 130 -246 263 -383
328 -53 25 -154 61 -190 67 -14 3 -25 5 -25 7 0 2 -31 7 -100 14 -118 12 -134
13 -137 10z"/>
<path d="M3246 3943 c-2 -3 -10 -5 -18 -7 -50 -8 -100 -79 -97 -138 9 -155
201 -191 272 -51 15 28 16 51 5 104 -5 23 -40 64 -68 79 -24 13 -85 21 -94 13z"/>
<path d="M653 3660 c-13 -5 -23 -7 -23 -4 0 5 -9 -2 -52 -39 -38 -33 -66 -103
-62 -154 12 -168 211 -245 327 -127 43 43 60 83 60 139 0 106 -82 190 -188
193 -22 0 -50 -3 -62 -8z"/>
<path d="M3385 3572 c-68 -12 -142 -49 -188 -95 -48 -48 -80 -87 -71 -87 4 0
2 -6 -4 -12 -21 -26 -39 -115 -37 -183 6 -174 155 -330 325 -339 25 -1 48 2
52 8 5 8 8 7 8 0 0 -17 69 0 133 33 117 58 194 189 191 323 -2 78 -7 99 -35
156 -39 82 -161 182 -228 187 -12 1 -21 4 -21 7 0 6 -94 8 -125 2z"/>
<path d="M370 2910 c-121 -38 -202 -151 -127 -176 34 -12 109 -6 147 10 58 24
117 72 128 105 10 27 8 33 -15 51 -27 21 -85 26 -133 10z"/>
<path d="M3715 2800 c-115 -34 -172 -146 -131 -258 23 -65 99 -121 171 -126
36 -3 103 25 135 56 124 118 47 323 -125 333 -16 1 -39 -1 -50 -5z"/>
<path d="M3006 2283 c-2 -3 -26 -6 -53 -8 -78 -6 -145 -15 -155 -21 -5 -3 -23
-7 -41 -10 -29 -3 -84 -18 -177 -47 -19 -6 -37 -12 -40 -12 -6 -2 -44 -18
-113 -47 -253 -108 -432 -251 -594 -473 -16 -21 -44 -71 -61 -105 -9 -19 -20
-37 -23 -40 -8 -7 -54 -125 -70 -182 -7 -27 -16 -48 -19 -48 -3 0 -6 -12 -7
-28 -1 -15 -5 -52 -10 -82 -11 -73 -6 -292 7 -320 1 -3 3 -9 4 -15 5 -32 41
-137 61 -177 13 -25 21 -49 18 -52 -4 -3 -2 -6 3 -6 5 0 18 -17 29 -37 24 -46
42 -69 119 -151 71 -74 209 -170 239 -164 4 1 7 -2 7 -8 0 -5 4 -10 9 -10 5 0
20 -4 33 -9 13 -5 25 -9 28 -9 3 0 19 -6 35 -12 67 -26 205 -32 290 -12 84 19
176 66 233 121 57 54 111 131 127 181 23 74 39 163 36 205 -2 36 -11 104 -17
125 -3 14 -8 36 -11 50 -2 13 -8 29 -12 35 -7 10 -64 155 -81 205 -22 70 0
132 53 149 19 7 43 9 53 5 36 -11 69 -28 95 -49 14 -11 38 -29 53 -40 16 -11
33 -25 40 -31 6 -6 36 -27 66 -47 30 -20 60 -41 65 -45 8 -7 36 -20 55 -27 3
-1 23 -10 45 -19 22 -10 51 -20 64 -23 14 -2 29 -7 35 -11 12 -7 21 -9 90 -16
27 -3 51 -8 54 -11 3 -3 11 0 19 6 10 9 13 8 13 0 0 -7 5 -9 11 -5 7 4 28 8
48 10 60 6 97 13 127 25 16 7 34 13 39 15 28 6 64 24 70 34 3 5 11 8 16 5 5
-4 9 -2 9 4 0 5 8 12 18 15 30 10 128 109 165 166 50 80 78 177 81 285 2 50
-1 105 -6 124 -5 18 -11 41 -13 50 -6 30 -38 106 -57 133 -10 14 -18 29 -18
32 0 33 -167 202 -246 248 -160 95 -335 156 -499 174 -53 6 -334 11 -339 7z
m-552 -1021 c3 -5 -1 -9 -9 -9 -8 0 -12 4 -9 9 3 4 7 8 9 8 2 0 6 -4 9 -8z
m-148 -562 c0 -12 -4 -16 -9 -11 -5 5 -6 14 -3 20 10 15 12 14 12 -9z m-56
-376 c0 -8 -19 -13 -24 -6 -3 5 1 9 9 9 8 0 15 -2 15 -3z"/>
<path d="M910 1097 c-63 -31 -150 -108 -150 -133 0 -8 -4 -14 -8 -14 -19 0
-40 -82 -40 -156 0 -80 30 -180 51 -167 5 3 7 1 3 -5 -7 -11 50 -74 101 -109
48 -34 136 -60 195 -57 67 3 92 9 139 34 22 11 39 18 39 15 0 -2 17 12 38 30
20 19 40 35 45 35 4 0 7 7 7 15 0 8 4 15 8 15 6 0 33 56 30 63 -1 1 5 13 12
27 14 25 21 160 9 160 -4 0 -6 6 -6 13 1 24 -16 77 -24 77 -5 0 -9 6 -9 13 0
7 -9 23 -20 35 -11 12 -20 25 -20 29 -1 12 -68 57 -125 84 -37 17 -70 23 -131
25 -72 1 -87 -2 -144 -29z m264 -355 c3 -5 -1 -9 -9 -9 -8 0 -12 4 -9 9 3 4 7
8 9 8 2 0 6 -4 9 -8z m-10 -128 c3 -8 2 -12 -4 -9 -6 3 -10 10 -10 16 0 14 7
11 14 -7z"/>
<path d="M3383 880 c-29 -12 -32 -28 -18 -90 10 -42 123 -160 153 -160 12 0
24 -5 27 -10 7 -11 45 5 57 24 13 19 9 55 -8 81 -9 14 -14 25 -10 25 7 0 -18
32 -62 77 -46 47 -102 68 -139 53z"/>
<path d="M1373 441 c-64 -40 -90 -76 -84 -113 0 -5 -4 -8 -10 -8 -5 0 -7 -5
-4 -10 4 -6 8 -25 11 -43 9 -76 73 -137 149 -143 44 -4 105 12 105 27 0 6 4 8
9 4 16 -9 62 62 68 104 8 60 -4 102 -40 143 -57 65 -138 81 -204 39z"/>
</g>
</svg>
